<svg width="40" height="40" viewBox="0 0 40 40" fill="none" xmlns="http://www.w3.org/2000/svg">
<rect width="40" height="40" rx="20" fill="white" fill-opacity="0.88"/>
<rect x="0.5" y="0.5" width="39" height="39" rx="19.5" stroke="black" stroke-opacity="0.38"/>
<path d="M20.018 12.3438C20.1914 11.6724 20.583 11.0778 21.1314 10.6535C21.6797 10.2292 22.3536 9.99931 23.0469 10H23.1251C23.2908 10 23.4498 10.0658 23.567 10.1831C23.6842 10.3003 23.7501 10.4592 23.7501 10.625C23.7501 10.7908 23.6842 10.9497 23.567 11.0669C23.4498 11.1842 23.2908 11.25 23.1251 11.25H23.0469C22.6312 11.25 22.2273 11.3881 21.8986 11.6426C21.57 11.8972 21.3352 12.2537 21.2313 12.6563C21.1899 12.8168 21.0863 12.9544 20.9435 13.0386C20.8006 13.1229 20.6302 13.1469 20.4696 13.1055C20.309 13.064 20.1715 12.9605 20.0872 12.8176C20.003 12.6748 19.9789 12.5043 20.0204 12.3438H20.018ZM27.4454 23.2492C27.3985 23.1421 27.3228 23.0501 27.2266 22.9836C25.9008 22.0727 25.6251 20.5188 25.6251 19.375C25.6251 17.9945 26.6774 16.7922 27.3047 16.1977C27.3664 16.1393 27.4156 16.0689 27.4492 15.9908C27.4828 15.9128 27.5001 15.8287 27.5001 15.7438C27.5001 15.6588 27.4828 15.5747 27.4492 15.4967C27.4156 15.4186 27.3664 15.3483 27.3047 15.2898C26.3141 14.3547 24.6735 13.75 23.1251 13.75C22.0128 13.751 20.9256 14.0807 20.0001 14.6977C18.9205 13.9737 17.6223 13.6486 16.329 13.7782C15.0356 13.9078 13.8278 14.4841 12.9133 15.4078C12.3666 15.9659 11.9377 16.6282 11.652 17.3554C11.3662 18.0825 11.2296 18.8596 11.2501 19.6406C11.2807 20.9589 11.5738 22.2578 12.1123 23.4614C12.6507 24.6651 13.4237 25.7493 14.386 26.6508C14.9655 27.1983 15.7332 27.5023 16.5305 27.5H23.3805C23.8068 27.5008 24.2286 27.4141 24.62 27.2451C25.0113 27.0762 25.3638 26.8287 25.6555 26.518C26.196 25.9363 26.6635 25.2909 27.0477 24.5961C27.5961 23.5938 27.5258 23.4375 27.4454 23.2492Z" fill="black" fill-opacity="0.88"/>
</svg>
