<svg width="16" height="13" viewBox="0 0 16 13" fill="black" xmlns="http://www.w3.org/2000/svg">
<path d="M1.5 5.37483H3.125V9.62483H2C1.90054 9.62483 1.80516 9.66434 1.73483 9.73466C1.66451 9.80499 1.625 9.90037 1.625 9.99983C1.625 10.0993 1.66451 10.1947 1.73483 10.265C1.80516 10.3353 1.90054 10.3748 2 10.3748H14C14.0995 10.3748 14.1948 10.3353 14.2652 10.265C14.3355 10.1947 14.375 10.0993 14.375 9.99983C14.375 9.90037 14.3355 9.80499 14.2652 9.73466C14.1948 9.66434 14.0995 9.62483 14 9.62483H12.875V5.37483H14.5C14.5816 5.37477 14.661 5.34807 14.7261 5.2988C14.7912 5.24953 14.8384 5.18037 14.8606 5.10182C14.8828 5.02327 14.8787 4.93962 14.8491 4.86357C14.8194 4.78752 14.7658 4.72323 14.6962 4.68045L8.19625 0.680452C8.13721 0.644194 8.06928 0.625 8 0.625C7.93072 0.625 7.86279 0.644194 7.80375 0.680452L1.30375 4.68045C1.23423 4.72323 1.18057 4.78752 1.15091 4.86357C1.12125 4.93962 1.11722 5.02327 1.13942 5.10182C1.16162 5.18037 1.20884 5.24953 1.27392 5.2988C1.339 5.34807 1.41837 5.37477 1.5 5.37483ZM3.875 5.37483H6.125V9.62483H3.875V5.37483ZM9.125 5.37483V9.62483H6.875V5.37483H9.125ZM12.125 9.62483H9.875V5.37483H12.125V9.62483ZM8 1.43733L13.175 4.62483H2.825L8 1.43733ZM15.375 11.9998C15.375 12.0993 15.3355 12.1947 15.2652 12.265C15.1948 12.3353 15.0995 12.3748 15 12.3748H1C0.900544 12.3748 0.805161 12.3353 0.734835 12.265C0.664509 12.1947 0.625 12.0993 0.625 11.9998C0.625 11.9004 0.664509 11.805 0.734835 11.7347C0.805161 11.6643 0.900544 11.6248 1 11.6248H15C15.0995 11.6248 15.1948 11.6643 15.2652 11.7347C15.3355 11.805 15.375 11.9004 15.375 11.9998Z" fill="black" fill-opacity="0.5"/>
</svg>
