<svg width="240" height="40" viewBox="0 0 240 40" fill="none" xmlns="http://www.w3.org/2000/svg">
<path d="M8.68328 6.03735C7.7065 6.19397 6.58526 6.62299 5.83548 7.13372C5.27143 7.51507 4.50789 8.29138 4.10892 8.87702C3.40041 9.93253 3.07023 10.9268 3.00832 12.2002C2.96017 13.1876 3.0496 13.8005 3.35914 14.7062C3.89568 16.2656 5.11322 17.6344 6.63342 18.3971C7.54141 18.8533 8.27056 19.0236 9.69445 19.1053C11.7581 19.2347 13.4021 19.9088 14.6815 21.155C16.0642 22.4965 16.752 24.1173 16.9446 26.4803C17.1785 29.2859 18.4648 31.2811 20.7692 32.3979C21.746 32.8678 22.4683 33.0312 23.6239 33.0312C24.353 33.0312 24.6832 33.004 25.1579 32.8814C26.4373 32.5682 27.4966 31.9553 28.3909 31.036C29.5878 29.7966 30.1037 28.5845 30.2344 26.739C30.3169 25.5269 30.4476 24.7778 30.709 24.0015C31.4381 21.836 32.9239 20.3379 35.0907 19.5683C36.2326 19.1598 35.9919 19.1734 41.8801 19.1121C47.8095 19.0508 47.6788 19.0576 48.7794 18.6354C51.3039 17.6752 52.9961 15.2441 52.9961 12.5747C52.9961 11.7303 52.9067 11.1923 52.6246 10.3752C52.2188 9.19708 51.4002 8.08028 50.3891 7.31758C49.7768 6.86133 48.6969 6.3506 47.9402 6.15992C47.3211 6.0033 47.3074 6.0033 41.9901 6.0033C36.6797 6.0033 36.6591 6.0033 36.0469 6.15992C34.1346 6.63661 32.5525 7.89641 31.6858 9.61247C31.1836 10.6203 30.9841 11.4715 30.9841 12.6428C30.9841 15.571 29.6015 17.9204 27.1664 19.1257C26.0246 19.6977 24.979 19.9293 23.5964 19.9293C22.5164 19.9293 21.8905 19.8407 21.0375 19.5547C18.6162 18.7512 17.0822 17.11 16.4219 14.6245C16.2774 14.0865 16.243 13.7596 16.2155 12.779C16.188 11.8188 16.1467 11.4647 16.016 10.9404C15.4038 8.57739 13.5397 6.75237 11.139 6.16673C10.5061 6.01692 9.25421 5.94882 8.68328 6.03735Z" fill="white"/>
<path d="M36.2435 21.0531C35.3218 21.2506 34.7508 21.5706 34.0355 22.272C33.5952 22.7079 33.4164 22.9462 33.1894 23.4025C32.3295 25.1458 32.6322 27.0797 33.9942 28.4417C35.3011 29.7423 37.0827 30.1237 38.8024 29.4631C40.7697 28.7141 41.9529 26.5894 41.547 24.5533C41.2719 23.1982 40.3776 22.0269 39.167 21.4344C38.2177 20.9782 37.1997 20.842 36.2435 21.0531Z" fill="white"/>
<path d="M69.2234 8.364H72.6954C73.0687 8.364 73.3727 8.45467 73.6074 8.636C73.842 8.81733 74.018 9.052 74.1354 9.34L79.5754 23.452C79.7567 23.9107 79.9274 24.4173 80.0874 24.972C80.258 25.516 80.418 26.092 80.5674 26.7C80.8127 25.4733 81.1167 24.3907 81.4794 23.452L86.9034 9.34C86.9994 9.09466 87.17 8.87067 87.4154 8.668C87.6607 8.46533 87.9647 8.364 88.3274 8.364H91.7994L82.4554 31.5H78.5674L69.2234 8.364ZM97.3981 15.084V31.5H93.4461V15.084H97.3981ZM97.9901 10.3C97.9901 10.6413 97.9208 10.9613 97.7821 11.26C97.6435 11.5587 97.4568 11.82 97.2221 12.044C96.9981 12.268 96.7315 12.4493 96.4221 12.588C96.1128 12.716 95.7821 12.78 95.4301 12.78C95.0888 12.78 94.7635 12.716 94.4541 12.588C94.1555 12.4493 93.8941 12.268 93.6701 12.044C93.4461 11.82 93.2648 11.5587 93.1261 11.26C92.9981 10.9613 92.9341 10.6413 92.9341 10.3C92.9341 9.948 92.9981 9.61733 93.1261 9.308C93.2648 8.99867 93.4461 8.732 93.6701 8.508C93.8941 8.284 94.1555 8.108 94.4541 7.98C94.7635 7.84133 95.0888 7.772 95.4301 7.772C95.7821 7.772 96.1128 7.84133 96.4221 7.98C96.7315 8.108 96.9981 8.284 97.2221 8.508C97.4568 8.732 97.6435 8.99867 97.7821 9.308C97.9208 9.61733 97.9901 9.948 97.9901 10.3ZM101.078 31.5V15.084H103.398C103.803 15.084 104.086 15.1587 104.246 15.308C104.406 15.4573 104.512 15.7133 104.566 16.076L104.806 18.06C105.392 17.0467 106.08 16.2467 106.87 15.66C107.659 15.0733 108.544 14.78 109.526 14.78C110.336 14.78 111.008 14.9667 111.542 15.34L111.03 18.3C110.998 18.492 110.928 18.6307 110.822 18.716C110.715 18.7907 110.571 18.828 110.39 18.828C110.23 18.828 110.011 18.7907 109.734 18.716C109.456 18.6413 109.088 18.604 108.63 18.604C107.808 18.604 107.104 18.8333 106.518 19.292C105.931 19.74 105.435 20.4013 105.03 21.276V31.5H101.078ZM125.735 31.5H123.959C123.586 31.5 123.293 31.4467 123.079 31.34C122.866 31.2227 122.706 30.9933 122.599 30.652L122.247 29.484C121.831 29.8573 121.421 30.188 121.015 30.476C120.621 30.7533 120.21 30.988 119.783 31.18C119.357 31.372 118.903 31.516 118.423 31.612C117.943 31.708 117.41 31.756 116.823 31.756C116.13 31.756 115.49 31.6653 114.903 31.484C114.317 31.292 113.81 31.0093 113.383 30.636C112.967 30.2627 112.642 29.7987 112.407 29.244C112.173 28.6893 112.055 28.044 112.055 27.308C112.055 26.6893 112.215 26.0813 112.535 25.484C112.866 24.876 113.41 24.332 114.167 23.852C114.925 23.3613 115.933 22.956 117.191 22.636C118.45 22.316 120.013 22.1347 121.879 22.092V21.132C121.879 20.0333 121.645 19.2227 121.175 18.7C120.717 18.1667 120.045 17.9 119.159 17.9C118.519 17.9 117.986 17.9747 117.559 18.124C117.133 18.2733 116.759 18.444 116.439 18.636C116.13 18.8173 115.842 18.9827 115.575 19.132C115.309 19.2813 115.015 19.356 114.695 19.356C114.429 19.356 114.199 19.2867 114.007 19.148C113.815 19.0093 113.661 18.8387 113.543 18.636L112.823 17.372C114.711 15.644 116.989 14.78 119.655 14.78C120.615 14.78 121.469 14.94 122.215 15.26C122.973 15.5693 123.613 16.0067 124.135 16.572C124.658 17.1267 125.053 17.7933 125.319 18.572C125.597 19.3507 125.735 20.204 125.735 21.132V31.5ZM118.055 29.036C118.461 29.036 118.834 28.9987 119.175 28.924C119.517 28.8493 119.837 28.7373 120.135 28.588C120.445 28.4387 120.738 28.2573 121.015 28.044C121.303 27.82 121.591 27.5587 121.879 27.26V24.492C120.727 24.5453 119.762 24.6467 118.983 24.796C118.215 24.9347 117.597 25.116 117.127 25.34C116.658 25.564 116.322 25.8253 116.119 26.124C115.927 26.4227 115.831 26.748 115.831 27.1C115.831 27.7933 116.034 28.2893 116.439 28.588C116.855 28.8867 117.394 29.036 118.055 29.036ZM133.029 7.724V31.5H129.077V7.724H133.029ZM156.912 8.364V11.788H146.656V18.636H155.312V22.076H146.656V31.5H142.32V8.364H156.912ZM163.473 15.084V31.5H159.521V15.084H163.473ZM164.065 10.3C164.065 10.6413 163.996 10.9613 163.857 11.26C163.718 11.5587 163.532 11.82 163.297 12.044C163.073 12.268 162.806 12.4493 162.497 12.588C162.188 12.716 161.857 12.78 161.505 12.78C161.164 12.78 160.838 12.716 160.529 12.588C160.23 12.4493 159.969 12.268 159.745 12.044C159.521 11.82 159.34 11.5587 159.201 11.26C159.073 10.9613 159.009 10.6413 159.009 10.3C159.009 9.948 159.073 9.61733 159.201 9.308C159.34 8.99867 159.521 8.732 159.745 8.508C159.969 8.284 160.23 8.108 160.529 7.98C160.838 7.84133 161.164 7.772 161.505 7.772C161.857 7.772 162.188 7.84133 162.497 7.98C162.806 8.108 163.073 8.284 163.297 8.508C163.532 8.732 163.718 8.99867 163.857 9.308C163.996 9.61733 164.065 9.948 164.065 10.3ZM176.897 18.284C176.79 18.4547 176.678 18.5773 176.561 18.652C176.443 18.716 176.294 18.748 176.113 18.748C175.921 18.748 175.713 18.6947 175.489 18.588C175.275 18.4813 175.025 18.364 174.737 18.236C174.449 18.0973 174.118 17.9747 173.745 17.868C173.382 17.7613 172.95 17.708 172.449 17.708C171.67 17.708 171.057 17.8733 170.609 18.204C170.161 18.5347 169.937 18.9667 169.937 19.5C169.937 19.852 170.049 20.1507 170.273 20.396C170.507 20.6307 170.811 20.8387 171.185 21.02C171.569 21.2013 172.001 21.3667 172.481 21.516C172.961 21.6547 173.451 21.8093 173.953 21.98C174.454 22.1507 174.945 22.348 175.425 22.572C175.905 22.7853 176.331 23.0627 176.705 23.404C177.089 23.7347 177.393 24.1347 177.617 24.604C177.851 25.0733 177.969 25.6387 177.969 26.3C177.969 27.0893 177.825 27.82 177.537 28.492C177.249 29.1533 176.827 29.7293 176.273 30.22C175.718 30.7 175.03 31.0787 174.209 31.356C173.398 31.6227 172.465 31.756 171.409 31.756C170.843 31.756 170.289 31.7027 169.745 31.596C169.211 31.5 168.694 31.3613 168.193 31.18C167.702 30.9987 167.243 30.7853 166.817 30.54C166.401 30.2947 166.033 30.028 165.713 29.74L166.625 28.236C166.742 28.0547 166.881 27.916 167.041 27.82C167.201 27.724 167.403 27.676 167.649 27.676C167.894 27.676 168.123 27.7453 168.337 27.884C168.561 28.0227 168.817 28.172 169.105 28.332C169.393 28.492 169.729 28.6413 170.113 28.78C170.507 28.9187 171.003 28.988 171.601 28.988C172.07 28.988 172.47 28.9347 172.801 28.828C173.142 28.7107 173.419 28.5613 173.633 28.38C173.857 28.1987 174.017 27.9907 174.113 27.756C174.219 27.5107 174.273 27.26 174.273 27.004C174.273 26.62 174.155 26.3053 173.921 26.06C173.697 25.8147 173.393 25.6013 173.009 25.42C172.635 25.2387 172.203 25.0787 171.713 24.94C171.233 24.7907 170.737 24.6307 170.225 24.46C169.723 24.2893 169.227 24.092 168.737 23.868C168.257 23.6333 167.825 23.34 167.441 22.988C167.067 22.636 166.763 22.204 166.529 21.692C166.305 21.18 166.193 20.5613 166.193 19.836C166.193 19.164 166.326 18.524 166.593 17.916C166.859 17.308 167.249 16.78 167.761 16.332C168.283 15.8733 168.929 15.5107 169.697 15.244C170.475 14.9667 171.371 14.828 172.385 14.828C173.515 14.828 174.545 15.0147 175.473 15.388C176.401 15.7613 177.174 16.252 177.793 16.86L176.897 18.284ZM190.065 18.284C189.959 18.4547 189.847 18.5773 189.729 18.652C189.612 18.716 189.463 18.748 189.281 18.748C189.089 18.748 188.881 18.6947 188.657 18.588C188.444 18.4813 188.193 18.364 187.905 18.236C187.617 18.0973 187.287 17.9747 186.913 17.868C186.551 17.7613 186.119 17.708 185.617 17.708C184.839 17.708 184.225 17.8733 183.777 18.204C183.329 18.5347 183.105 18.9667 183.105 19.5C183.105 19.852 183.217 20.1507 183.441 20.396C183.676 20.6307 183.98 20.8387 184.353 21.02C184.737 21.2013 185.169 21.3667 185.649 21.516C186.129 21.6547 186.62 21.8093 187.121 21.98C187.623 22.1507 188.113 22.348 188.593 22.572C189.073 22.7853 189.5 23.0627 189.873 23.404C190.257 23.7347 190.561 24.1347 190.785 24.604C191.02 25.0733 191.137 25.6387 191.137 26.3C191.137 27.0893 190.993 27.82 190.705 28.492C190.417 29.1533 189.996 29.7293 189.441 30.22C188.887 30.7 188.199 31.0787 187.377 31.356C186.567 31.6227 185.633 31.756 184.577 31.756C184.012 31.756 183.457 31.7027 182.913 31.596C182.38 31.5 181.863 31.3613 181.361 31.18C180.871 30.9987 180.412 30.7853 179.985 30.54C179.569 30.2947 179.201 30.028 178.881 29.74L179.793 28.236C179.911 28.0547 180.049 27.916 180.209 27.82C180.369 27.724 180.572 27.676 180.817 27.676C181.063 27.676 181.292 27.7453 181.505 27.884C181.729 28.0227 181.985 28.172 182.273 28.332C182.561 28.492 182.897 28.6413 183.281 28.78C183.676 28.9187 184.172 28.988 184.769 28.988C185.239 28.988 185.639 28.9347 185.969 28.828C186.311 28.7107 186.588 28.5613 186.801 28.38C187.025 28.1987 187.185 27.9907 187.281 27.756C187.388 27.5107 187.441 27.26 187.441 27.004C187.441 26.62 187.324 26.3053 187.089 26.06C186.865 25.8147 186.561 25.6013 186.177 25.42C185.804 25.2387 185.372 25.0787 184.881 24.94C184.401 24.7907 183.905 24.6307 183.393 24.46C182.892 24.2893 182.396 24.092 181.905 23.868C181.425 23.6333 180.993 23.34 180.609 22.988C180.236 22.636 179.932 22.204 179.697 21.692C179.473 21.18 179.361 20.5613 179.361 19.836C179.361 19.164 179.495 18.524 179.761 17.916C180.028 17.308 180.417 16.78 180.929 16.332C181.452 15.8733 182.097 15.5107 182.865 15.244C183.644 14.9667 184.54 14.828 185.553 14.828C186.684 14.828 187.713 15.0147 188.641 15.388C189.569 15.7613 190.343 16.252 190.961 16.86L190.065 18.284ZM197.698 15.084V31.5H193.746V15.084H197.698ZM198.29 10.3C198.29 10.6413 198.221 10.9613 198.082 11.26C197.943 11.5587 197.757 11.82 197.522 12.044C197.298 12.268 197.031 12.4493 196.722 12.588C196.413 12.716 196.082 12.78 195.73 12.78C195.389 12.78 195.063 12.716 194.754 12.588C194.455 12.4493 194.194 12.268 193.97 12.044C193.746 11.82 193.565 11.5587 193.426 11.26C193.298 10.9613 193.234 10.6413 193.234 10.3C193.234 9.948 193.298 9.61733 193.426 9.308C193.565 8.99867 193.746 8.732 193.97 8.508C194.194 8.284 194.455 8.108 194.754 7.98C195.063 7.84133 195.389 7.772 195.73 7.772C196.082 7.772 196.413 7.84133 196.722 7.98C197.031 8.108 197.298 8.284 197.522 8.508C197.757 8.732 197.943 8.99867 198.082 9.308C198.221 9.61733 198.29 9.948 198.29 10.3ZM208.386 14.828C209.612 14.828 210.722 15.0253 211.714 15.42C212.716 15.8147 213.57 16.3747 214.274 17.1C214.978 17.8253 215.522 18.7107 215.906 19.756C216.29 20.8013 216.482 21.9693 216.482 23.26C216.482 24.5613 216.29 25.7347 215.906 26.78C215.522 27.8253 214.978 28.716 214.274 29.452C213.57 30.188 212.716 30.7533 211.714 31.148C210.722 31.5427 209.612 31.74 208.386 31.74C207.159 31.74 206.044 31.5427 205.042 31.148C204.039 30.7533 203.18 30.188 202.466 29.452C201.762 28.716 201.212 27.8253 200.818 26.78C200.434 25.7347 200.242 24.5613 200.242 23.26C200.242 21.9693 200.434 20.8013 200.818 19.756C201.212 18.7107 201.762 17.8253 202.466 17.1C203.18 16.3747 204.039 15.8147 205.042 15.42C206.044 15.0253 207.159 14.828 208.386 14.828ZM208.386 28.7C209.751 28.7 210.759 28.2413 211.41 27.324C212.071 26.4067 212.402 25.0627 212.402 23.292C212.402 21.5213 212.071 20.172 211.41 19.244C210.759 18.316 209.751 17.852 208.386 17.852C206.999 17.852 205.975 18.3213 205.314 19.26C204.652 20.188 204.322 21.532 204.322 23.292C204.322 25.052 204.652 26.396 205.314 27.324C205.975 28.2413 206.999 28.7 208.386 28.7ZM218.765 31.5V15.084H221.181C221.693 15.084 222.029 15.324 222.189 15.804L222.461 17.1C222.792 16.7587 223.138 16.4493 223.501 16.172C223.874 15.8947 224.264 15.6547 224.669 15.452C225.085 15.2493 225.528 15.0947 225.997 14.988C226.466 14.8813 226.978 14.828 227.533 14.828C228.429 14.828 229.224 14.9827 229.917 15.292C230.61 15.5907 231.186 16.0173 231.645 16.572C232.114 17.116 232.466 17.772 232.701 18.54C232.946 19.2973 233.069 20.1347 233.069 21.052V31.5H229.117V21.052C229.117 20.0493 228.882 19.276 228.413 18.732C227.954 18.1773 227.261 17.9 226.333 17.9C225.65 17.9 225.01 18.0547 224.413 18.364C223.816 18.6733 223.25 19.0947 222.717 19.628V31.5H218.765Z" fill="white"/>
</svg>
